HIERARCHY
ROOT Hips
{
	OFFSET 0.000000 0.000000 0.000000
	CHANNELS 6 Xposition Yposition Zposition Xrotation Yrotation Zrotation
	JOINT LeftUpLeg_virtual
	{
		OFFSET 0.000000 0.000000 0.000000
		CHANNELS 3 Xrotation Yrotation Zrotation
		JOINT LeftUpLeg
		{
			OFFSET 10.205400 -3.823500 0.155100
			CHANNELS 3 Xrotation Yrotation Zrotation
			JOINT LeftLeg
			{
				OFFSET 0.708757 -12.982077 0.567790
				CHANNELS 3 Xrotation Yrotation Zrotation
				JOINT LeftFoot
				{
					OFFSET -0.708756 -10.717838 -2.184338
					CHANNELS 3 Xrotation Yrotation Zrotation
					JOINT LeftToeBase
					{
						OFFSET 0.108149 -7.191104 7.560241
						CHANNELS 3 Xrotation Yrotation Zrotation
						JOINT LeftToe_End
						{
							OFFSET 0.070230 0.081724 4.490308
							CHANNELS 3 Xrotation Yrotation Zrotation
							End Site
							{
								OFFSET 0 0 0
							}
						}
					}
				}
			}
		}
	}
	JOINT RightUpLeg_virtual
	{
		OFFSET 0.000000 0.000000 0.000000
		CHANNELS 3 Xrotation Yrotation Zrotation
		JOINT RightUpLeg
		{
			OFFSET -10.205400 -3.823500 0.005500
			CHANNELS 3 Xrotation Yrotation Zrotation
			JOINT RightLeg
			{
				OFFSET -0.708756 -12.982134 0.610632
				CHANNELS 3 Xrotation Yrotation Zrotation
				JOINT RightFoot
				{
					OFFSET 0.708754 -10.717769 -1.945823
					CHANNELS 3 Xrotation Yrotation Zrotation
					JOINT RightToeBase
					{
						OFFSET -0.108140 -7.191069 7.372968
						CHANNELS 3 Xrotation Yrotation Zrotation
						JOINT RightToe_End
						{
							OFFSET -0.070227 0.081735 4.479403
							CHANNELS 3 Xrotation Yrotation Zrotation
							End Site
							{
								OFFSET 0 0 0
							}
						}
					}
				}
			}
		}
	}
	JOINT Spine_virtual
	{
		OFFSET 0.000000 0.000000 0.000000
		CHANNELS 3 Xrotation Yrotation Zrotation
		JOINT Spine
		{
			OFFSET 0.000000 6.876099 0.125700
			CHANNELS 3 Xrotation Yrotation Zrotation
			JOINT Spine1
			{
				OFFSET 0.000000 5.730043 0.104720
				CHANNELS 3 Xrotation Yrotation Zrotation
				JOINT Spine1_split
				{
					OFFSET 0.000000 5.730043 0.104720
					CHANNELS 3 Xrotation Yrotation Zrotation
					JOINT Spine2
					{
						OFFSET 0.000000 5.730043 0.104720
						CHANNELS 3 Xrotation Yrotation Zrotation
						JOINT Neck_virtual
						{
							OFFSET 0.000000 0.000000 0.000000
							CHANNELS 3 Xrotation Yrotation Zrotation
							JOINT Neck
							{
								OFFSET 0.000000 10.314075 0.188496
								CHANNELS 3 Xrotation Yrotation Zrotation
								JOINT Head
								{
									OFFSET 0.000000 7.643700 -2.377400
									CHANNELS 3 Xrotation Yrotation Zrotation
									JOINT HeadTop_End
									{
										OFFSET 0.000000 43.788605 -13.619600
										CHANNELS 3 Xrotation Yrotation Zrotation
										End Site
										{
											OFFSET 0 0 0
										}
									}
								}
							}
						}
						JOINT LeftShoulder_virtual
						{
							OFFSET 0.000000 0.000000 0.000000
							CHANNELS 3 Xrotation Yrotation Zrotation
							JOINT LeftShoulder
							{
								OFFSET 2.196100 4.412489 0.087492
								CHANNELS 3 Xrotation Yrotation Zrotation
								JOINT LeftShoulder_split
								{
									OFFSET 2.196100 4.412489 0.087492
									CHANNELS 3 Xrotation Yrotation Zrotation
									JOINT LeftArm
									{
										OFFSET 8.771219 -2.981674 -0.026999
										CHANNELS 3 Xrotation Yrotation Zrotation
										JOINT LeftForeArm
										{
											OFFSET 8.512804 0.000000 -0.000000
											CHANNELS 3 Xrotation Yrotation Zrotation
											JOINT LeftHand
											{
												OFFSET 18.484802 0.000000 -0.000000
												CHANNELS 3 Xrotation Yrotation Zrotation
												End Site
												{
													OFFSET 0 0 0
												}
											}
										}
									}
								}
							}
						}
						JOINT RightShoulder_virtual
						{
							OFFSET 0.000000 0.000000 0.000000
							CHANNELS 3 Xrotation Yrotation Zrotation
							JOINT RightShoulder
							{
								OFFSET -2.196100 4.412496 0.070690
								CHANNELS 3 Xrotation Yrotation Zrotation
								JOINT RightShoulder_split
								{
									OFFSET -2.196100 4.412496 0.070690
									CHANNELS 3 Xrotation Yrotation Zrotation
									JOINT RightArm
									{
										OFFSET -8.771282 -2.981682 -0.094208
										CHANNELS 3 Xrotation Yrotation Zrotation
										JOINT RightForeArm
										{
											OFFSET -8.494598 0.000000 0.000000
											CHANNELS 3 Xrotation Yrotation Zrotation
											JOINT RightHand
											{
												OFFSET -18.483803 0.000000 0.000001
												CHANNELS 3 Xrotation Yrotation Zrotation
												End Site
												{
													OFFSET 0 0 0
												}
											}
										}
									}
								}
							}
						}
					}
				}
			}
		}
	}
}
MOTION
Frames: 7
Frame Time: 0.03333333
0.068590 33.146317 4.999767 0.000000 0.000000 0.000000 3.881297 33.426232 -2.575678 -35.785185 5.574319 3.523778 27.140105 -28.711387 -4.406203 2.127042 -9.553428 1.831745 -0.127539 -0.038767 -0.530136 0.000000 0.000000 0.000000 3.881297 33.426232 -2.575678 -25.478969 14.673253 1.279287 33.765047 16.593765 0.794898 -12.491228 2.334578 0.247545 -0.660827 -0.037201 -0.021894 0.000000 0.000000 0.000000 3.881297 33.426232 -2.575678 7.020470 0.720460 -2.021896 1.194963 0.878378 1.356982 0.000000 0.000000 0.000000 0.000000 0.000000 0.000000 1.187243 1.042048 1.323506 -1.462645 26.897340 -8.295225 -8.065496 21.377983 -2.733281 0.000000 0.000000 0.000000 1.187243 1.042048 1.323506 -0.058172 -1.062264 -0.947290 0.000000 0.000000 0.000000 -58.784440 22.251325 -21.915958 10.922718 -76.738541 12.155540 0.000000 0.000000 0.000000 1.187243 1.042048 1.323506 4.825641 9.166186 6.762700 0.000000 0.000000 0.000000 11.896261 18.966983 61.061618 10.535335 22.100588 -4.963135 0.000000 0.000000 0.000000 
-0.315384 33.193306 5.219887 0.000000 0.000000 0.000000 4.332551 39.302794 -3.382420 -37.332861 6.109153 3.452743 25.046992 -37.039877 -4.756519 2.829670 -4.505848 0.081617 -0.111909 -0.038832 -0.619485 0.000000 0.000000 0.000000 4.332551 39.302794 -3.382420 -22.369957 14.226300 1.278306 33.051494 11.887780 1.980191 -14.766505 1.492628 -1.015099 -0.760430 -0.032718 0.011428 0.000000 0.000000 0.000000 4.332551 39.302794 -3.382420 7.210871 0.407515 -2.455965 1.139006 0.472313 1.508124 0.000000 0.000000 0.000000 0.000000 0.000000 0.000000 1.129819 0.658003 1.495974 -1.497329 24.861759 -8.282020 -9.017810 19.238500 -1.161757 0.000000 0.000000 0.000000 1.129819 0.658003 1.495974 -0.098273 -4.304842 -0.130047 0.000000 0.000000 0.000000 -58.723453 20.289133 -23.609874 9.881744 -75.007034 11.444789 0.000000 0.000000 0.000000 1.129819 0.658003 1.495974 4.845235 8.887825 6.669453 0.000000 0.000000 0.000000 9.629275 15.060104 62.090251 10.941259 22.517805 -5.122151 0.000000 0.000000 0.000000 
-0.689945 33.222244 5.266357 0.000000 0.000000 0.000000 5.172934 43.598382 -4.622837 -38.317723 6.440138 6.414583 25.142918 -33.741435 -4.426672 1.688011 -4.801754 -1.586272 -0.073164 -0.039230 -0.550328 0.000000 0.000000 0.000000 5.172934 43.598382 -4.622837 -20.848594 12.721260 1.967296 32.138065 9.655502 1.876608 -15.475284 0.461795 -1.594468 -0.759144 -0.032707 0.013651 0.000000 0.000000 0.000000 5.172934 43.598382 -4.622837 7.370520 0.331556 -2.734797 1.021574 0.402670 1.586731 0.000000 0.000000 0.000000 0.000000 0.000000 0.000000 1.011853 0.599502 1.577682 -1.918162 23.066302 -7.797577 -9.375051 17.512234 -0.237607 0.000000 0.000000 0.000000 1.011853 0.599502 1.577682 -0.156235 -7.215467 0.446622 0.000000 0.000000 0.000000 -58.915040 18.233873 -24.765147 9.439949 -73.554451 11.301859 0.000000 0.000000 0.000000 1.011853 0.599502 1.577682 4.849884 8.905637 6.467969 0.000000 0.000000 0.000000 7.348087 10.428505 62.949605 10.867225 23.018803 -5.002919 0.000000 0.000000 0.000000 
-1.077324 33.252487 5.168626 0.000000 0.000000 0.000000 5.766712 46.617004 -5.604244 -38.387678 6.468449 10.232622 26.149975 -27.723902 -3.960423 -0.021494 -4.400988 -2.635860 -0.020811 -0.039410 -0.450923 0.000000 0.000000 0.000000 5.766712 46.617004 -5.604244 -20.079727 11.376900 2.521720 31.142203 8.474001 1.719973 -15.321938 -0.413578 -1.861276 -0.757892 -0.032686 0.014719 0.000000 0.000000 0.000000 5.766712 46.617004 -5.604244 7.679883 0.387859 -3.077569 1.049334 0.499846 1.747552 0.000000 0.000000 0.000000 0.000000 0.000000 0.000000 1.036402 0.715987 1.731404 -2.695828 21.726938 -7.561748 -9.550586 16.092788 0.515011 0.000000 0.000000 0.000000 1.036402 0.715987 1.731404 -0.157368 -9.654421 0.935550 0.000000 0.000000 0.000000 -59.361249 16.081844 -25.708053 8.519083 -71.886170 10.635710 0.000000 0.000000 0.000000 1.036402 0.715987 1.731404 4.841317 9.119457 6.195324 0.000000 0.000000 0.000000 4.891784 5.438016 63.391430 10.370558 23.170877 -4.700235 0.000000 0.000000 0.000000 
-1.453601 33.305119 4.972526 0.000000 0.000000 0.000000 6.030663 49.377985 -6.078383 -37.811678 6.824311 13.373520 29.852711 -18.843384 -2.529816 -3.063675 -4.098464 -1.003345 0.041995 -0.039217 -0.328331 0.000000 0.000000 0.000000 6.030663 49.377985 -6.078383 -19.368255 10.242156 2.617692 30.405396 7.414952 1.525700 -15.143284 -1.170446 -1.795845 -0.756706 -0.032733 0.014870 0.000000 0.000000 0.000000 6.030663 49.377985 -6.078383 8.037178 0.292258 -3.577438 1.161799 0.388254 1.970579 0.000000 0.000000 0.000000 0.000000 0.000000 0.000000 1.148573 0.634443 1.959541 -3.182028 20.771391 -7.463676 -9.888897 15.057628 1.182301 0.000000 0.000000 0.000000 1.148573 0.634443 1.959541 -0.124636 -11.773968 1.358664 0.000000 0.000000 0.000000 -59.768294 14.470259 -26.379712 8.415326 -70.608932 10.726152 0.000000 0.000000 0.000000 1.148573 0.634443 1.959541 4.833060 9.369567 6.000839 0.000000 0.000000 0.000000 2.108125 0.315229 62.911739 10.017285 23.291756 -4.439873 0.000000 0.000000 0.000000 
-1.792942 33.362587 4.730380 0.000000 0.000000 0.000000 6.428339 52.372217 -6.429979 -36.293330 7.775979 15.611782 32.614532 -8.820269 -0.971721 -5.826379 -3.633255 -0.809483 0.110502 -0.038514 -0.193156 0.000000 0.000000 0.000000 6.428339 52.372217 -6.429979 -18.720285 9.284928 2.291811 30.115356 5.987912 1.310962 -15.373514 -1.831563 -1.422628 -0.755648 -0.032715 0.014346 0.000000 0.000000 0.000000 6.428339 52.372217 -6.429979 8.267181 0.012350 -4.135379 1.223780 0.029362 2.140599 0.000000 0.000000 0.000000 0.000000 0.000000 0.000000 1.218084 0.304243 2.150630 -3.266872 19.879513 -7.267258 -10.347889 14.202951 1.709261 0.000000 0.000000 0.000000 1.218084 0.304243 2.150630 -0.054615 -13.252363 1.655205 0.000000 0.000000 0.000000 -60.059260 12.860066 -27.275181 9.356387 -69.503131 11.687469 0.000000 0.000000 0.000000 1.218084 0.304243 2.150630 4.852118 9.252560 5.920774 0.000000 0.000000 0.000000 -1.005771 -5.061063 62.540238 9.195661 23.512013 -4.070574 0.000000 0.000000 0.000000 
-2.088831 33.394783 4.439002 0.000000 0.000000 0.000000 6.845078 55.247829 -6.818194 -34.407648 9.281358 17.250790 34.691893 -0.169499 0.035915 -7.924336 -3.122876 -1.456106 0.183431 -0.035717 -0.048126 0.000000 0.000000 0.000000 6.845078 55.247829 -6.818194 -18.197362 8.390575 1.889297 29.985965 5.922705 1.200694 -15.690283 -3.702037 -1.362037 -0.754819 -0.032725 0.013357 0.000000 0.000000 0.000000 6.845078 55.247829 -6.818194 8.450944 -0.256129 -4.578838 1.224372 -0.349191 2.349313 0.000000 0.000000 0.000000 0.000000 0.000000 0.000000 1.229372 -0.043673 2.382362 -3.033478 18.991616 -7.427806 -10.746939 13.253426 2.199307 0.000000 0.000000 0.000000 1.229372 -0.043673 2.382362 0.015860 -14.184523 1.825475 0.000000 0.000000 0.000000 -60.015814 11.410698 -28.572657 10.457645 -68.637848 12.723890 0.000000 0.000000 0.000000 1.229372 -0.043673 2.382362 4.897387 8.714428 5.739090 0.000000 0.000000 0.000000 -3.979030 -10.101391 62.290485 8.453110 23.863429 -3.823082 0.000000 0.000000 0.000000 
